PathFileType	4	(X/Y/Z)	../Python\walking\Walking10\task.trc
DataRate	CameraRate	NumFrames	NumMarkers	Units	OrigDataRate	OrigDataStartFrame	OrigNumFrames
200.000000	200.000000	5	30	mm	200.000000	74	598
Frame#	Time	CLAV			STRN			RASI			LASI			RTH1			RTH2			RTH3			RTB1			RTB3			RD5M			RTOE			LTH1			LTH2			LTH3			LTB1			LTB2			LTB3			LTOE			LD5M			RTB2			T10			RHEE			C7			PE02			PE03			RPSI			LPSI			PE01			RBAK			LHEE			
		X1	Y1	Z1	X2	Y2	Z2	X3	Y3	Z3	X4	Y4	Z4	X5	Y5	Z5	X6	Y6	Z6	X7	Y7	Z7	X8	Y8	Z8	X9	Y9	Z9	X10	Y10	Z10	X11	Y11	Z11	X12	Y12	Z12	X13	Y13	Z13	X14	Y14	Z14	X15	Y15	Z15	X16	Y16	Z16	X17	Y17	Z17	X18	Y18	Z18	X19	Y19	Z19	X20	Y20	Z20	X21	Y21	Z21	X22	Y22	Z22	X23	Y23	Z23	X24	Y24	Z24	X25	Y25	Z25	X26	Y26	Z26	X27	Y27	Z27	X28	Y28	Z28	X29	Y29	Z29	X30	Y30	Z30	

75	0.37	-523.2136840820315	1429.68017578125	221.9027252197267	-471.8086242675784	1237.208129882813	234.7036285400392	-505.7446899414065	1036.1298828125	383.045135498047	-487.8957214355471	1018.212219238282	112.0512771606446	-557.8210449218752	768.6015014648442	409.9349060058596	-616.7929687500002	749.0560302734377	409.1662597656252	-600.6965942382815	704.4434204101565	391.580261230469	-632.5892333984377	363.8406677246095	330.0455322265626	-649.6345214843752	288.1905822753907	317.0639648437501	-616.9121704101565	15.38836383819581	314.3494873046876	-554.126159667969	28.96385765075685	271.004119873047	-469.4387207031252	718.9351806640627	70.36172485351565	-475.6780395507815	672.8063964843752	89.09571075439456	-415.6680603027346	661.8107910156252	79.29380035400393	-431.8349609375002	399.4614257812502	96.24169921875006	-470.4784851074221	370.7007446289064	110.0374755859376	-434.2847290039065	320.950653076172	101.748634338379	-379.7665405273439	49.12248992919925	136.3532104492188	-425.5526428222659	41.81416320800783	102.8196258544922	-681.0161132812502	325.713348388672	331.8682861328126	-698.0601196289065	1265.799072265625	228.1307525634767	-770.351440429688	30.42458534240724	225.2207183837892	-636.1019287109377	1521.795654296875	210.9295196533204	-668.4675292968752	1060.705078125	262.3810119628907	-668.4213867187502	1057.89501953125	211.4928741455079	-663.917907714844	1074.25341796875	285.0547790527345	-661.3712158203127	1069.604614257813	185.6252441406251	-654.7918701171877	1118.991943359375	233.4988098144532	-650.771911621094	1442.499267578125	388.7172546386721	-574.627136230469	93.51676177978518	177.4151763916016	
76	0.375	-516.5810546875002	1428.9599609375	222.0643768310548	-465.5477600097659	1236.410888671875	234.9550018310548	-500.0028381347659	1035.28369140625	383.0967712402345	-481.4246520996096	1017.848266601563	112.1004028320313	-553.434509277344	767.8614501953127	409.8296813964846	-612.5530395507815	748.721374511719	408.9124145507815	-596.774108886719	704.0058593750002	391.4265136718752	-630.4298095703127	363.6013488769532	329.7001953125001	-647.9669189453127	288.0581970214845	316.7413024902345	-616.941101074219	15.44096660614014	314.2852478027345	-554.0537109375002	28.94346046447755	270.9709777832032	-461.110534667969	719.181579589844	70.00450134277347	-467.2784423828127	673.045349121094	88.70039367675784	-407.1500549316409	662.2773437500002	79.45634460449222	-420.0329589843752	397.5759582519534	96.51529693603521	-457.6648559570315	367.6071166992189	110.3560409545899	-419.9791259765627	319.0248107910157	101.8203735351563	-356.6469726562501	49.02223587036136	136.2435455322266	-402.1546325683596	40.28150558471681	102.6957473754883	-679.091979980469	325.7813720703126	331.5660095214845	-691.8265380859377	1265.402587890625	228.2501525878907	-770.2514038085942	30.73836517333986	224.9388732910157	-629.3785400390627	1521.196411132813	211.0357360839845	-662.4033203125002	1060.015991210938	261.9654235839845	-662.2028808593752	1057.274291992188	211.0808715820314	-657.9251708984377	1073.545532226563	284.660369873047	-655.0695800781252	1069.000610351563	185.2486114501954	-648.642028808594	1118.341430664063	233.1847686767579	-644.101989746094	1442.05517578125	388.9375000000002	-552.8450317382815	87.11879730224612	177.3618164062501	
77	0.38	-509.9404907226565	1428.190185546875	222.2176208496095	-459.2699890136721	1235.567504882813	235.1773376464845	-494.2180480957034	1034.403930664063	383.1181945800782	-474.911315917969	1017.414245605469	112.1103439331055	-549.0284423828127	767.113708496094	409.721862792969	-608.2927856445315	748.3795166015627	408.6560058593752	-592.826110839844	703.5627441406252	391.2724304199221	-628.2888793945315	363.3610839843751	329.360076904297	-646.3176879882815	287.9293823242189	316.4195556640626	-616.9779052734377	15.50038146972657	314.207244873047	-553.988464355469	28.92455482482912	270.9367675781251	-452.9269104003909	719.3092041015627	69.692253112793	-459.0452575683596	673.1736450195315	88.34423828125003	-398.812683105469	662.5949707031252	79.61627960205081	-408.3808288574221	395.6379699707034	96.80027008056646	-444.941833496094	364.4780578613282	110.7109375000001	-405.7826232910159	317.1213684082032	101.882667541504	-333.5748901367189	49.16384506225589	136.1719665527344	-378.7552490234376	38.98920059204103	102.612045288086	-677.1887817382815	325.8543701171876	331.2569580078126	-685.5814208984377	1264.950439453125	228.3544464111329	-770.1481933593755	31.07132148742677	224.629608154297	-622.6484985351565	1520.54736328125	211.1405029296876	-656.302673339844	1059.290649414063	261.5402221679689	-655.9445800781252	1056.605712890625	210.6609039306642	-651.8975219726565	1072.804077148438	284.2548217773439	-648.7310791015627	1068.342895507813	184.8620605468751	-642.4637451171877	1117.647705078125	232.8481903076173	-637.422546386719	1441.546020507813	389.1523437500002	-530.9216308593752	80.95352935791018	177.2982482910157	
78	0.385	-503.2917175292971	1427.372680664063	222.3618316650392	-452.9739685058596	1234.6796875	235.3710479736329	-488.3913269042971	1033.49267578125	383.1126403808595	-468.3507080078127	1016.910827636719	112.0852661132813	-544.5958251953127	766.358581542969	409.6097106933596	-604.0031738281252	748.0285644531252	408.3980712890627	-588.8418579101565	703.112731933594	391.1162109375002	-626.1634521484377	363.1205139160157	329.0241088867189	-644.6848754882815	287.8048706054689	316.096893310547	-617.0233154296877	15.56743335723878	314.1134643554689	-553.930603027344	28.90662384033205	270.9024047851564	-444.8945007324221	719.3110351562502	69.42382812500003	-450.9856262207034	673.1812744140627	88.02386474609378	-390.6609497070315	662.7565917968752	79.76850891113284	-396.8701171875002	393.6503601074221	97.09096527099615	-432.3056640625002	361.321990966797	111.090675354004	-391.6954345703127	315.2471313476564	101.9352416992188	-310.5764770507814	49.55689239501956	136.1502227783204	-355.378387451172	37.95092391967775	102.5773544311524	-675.3047485351565	325.9336242675782	330.9373474121095	-679.3236083984377	1264.443115234375	228.4429931640626	-770.0398559570317	31.42675209045412	224.2882385253907	-615.9119262695315	1519.85009765625	211.2428741455079	-650.1646728515627	1058.5302734375	261.1034240722657	-649.6447753906252	1055.890991210938	210.2308349609376	-645.834411621094	1072.030395507813	283.8365173339845	-642.353698730469	1067.633422851563	184.4636840820313	-636.2553710937502	1116.912475585938	232.4879760742189	-630.733581542969	1440.97265625	389.3609313964846	-508.8828125000002	75.05151367187503	177.2232818603516	
79	0.39	-496.6343078613284	1426.50927734375	222.4964599609376	-446.6584167480471	1233.749267578125	235.5368957519532	-482.5238037109377	1032.5517578125	383.0835266113282	-461.7383728027346	1016.338806152344	112.0295486450196	-540.1301269531252	765.5963134765627	409.4918518066409	-599.6759033203127	747.6665649414065	408.1397094726565	-584.8117675781252	702.654479980469	390.956481933594	-624.0500488281252	362.8804931640626	328.6914672851564	-643.0657958984377	287.6855773925782	315.771697998047	-617.0778808593752	15.64275646209718	314.0020141601564	-553.8798828125002	28.88917922973634	270.8689575195314	-437.0212097167971	719.1787719726565	69.19707489013675	-443.1063537597659	673.0579223632815	87.73724365234378	-382.7004394531251	662.754333496094	79.90743255615237	-385.490417480469	391.6174621582034	97.3810653686524	-419.7515563964846	358.1484375000001	111.4821472167969	-377.7164306640626	313.4096069335939	101.9782333374024	-287.6795654296876	50.20998382568362	136.1901855468751	-332.0495910644532	37.17947006225587	102.6005020141602	-673.4373168945315	326.020477294922	330.6040039062501	-673.0518798828127	1263.881591796875	228.5150146484376	-769.924438476563	31.80806922912599	223.911102294922	-609.168884277344	1519.106079101563	211.3418121337892	-643.9882812500002	1057.735961914063	260.6530761718751	-643.3020629882815	1055.1318359375	209.7884979248048	-639.7354125976565	1071.225219726563	283.4038391113282	-635.935485839844	1066.873901367188	184.0515289306641	-630.0156860351565	1116.137573242188	232.1030731201173	-624.0354003906252	1440.336547851563	389.5623474121096	-486.7576599121096	69.44214630126956	177.1357727050782	
